<mxfile host="app.diagrams.net" agent="Mozilla/5.0 (Windows NT 10.0; Win64; x64) AppleWebKit/537.36 (KHTML, like Gecko) Chrome/136.0.0.0 Safari/537.36" version="27.1.1">
  <diagram name="Page-1" id="ARsPdBYrxVjBUHcyx3yb">
    <mxGraphModel dx="3252" dy="968" grid="0" gridSize="10" guides="1" tooltips="1" connect="1" arrows="1" fold="1" page="1" pageScale="1" pageWidth="850" pageHeight="1100" math="0" shadow="0">
      <root>
        <mxCell id="0" />
        <mxCell id="1" parent="0" />
        <mxCell id="I1N8RfDE5ydrOPN3Wb88-2" value="Tenant" style="shape=umlActor;verticalLabelPosition=bottom;verticalAlign=top;html=1;outlineConnect=0;" parent="1" vertex="1">
          <mxGeometry x="-710" y="30" width="30" height="60" as="geometry" />
        </mxCell>
        <mxCell id="I1N8RfDE5ydrOPN3Wb88-3" value="Tenant_Home_Scr" style="shape=umlLifeline;perimeter=lifelinePerimeter;whiteSpace=wrap;html=1;container=1;dropTarget=0;collapsible=0;recursiveResize=0;outlineConnect=0;portConstraint=eastwest;newEdgeStyle={&quot;curved&quot;:0,&quot;rounded&quot;:0};" parent="1" vertex="1">
          <mxGeometry x="-570" y="20" width="110" height="1060" as="geometry" />
        </mxCell>
        <mxCell id="mxLJZWhY32rRbJcoQnrD-35" value="" style="html=1;points=[[0,0,0,0,5],[0,1,0,0,-5],[1,0,0,0,5],[1,1,0,0,-5]];perimeter=orthogonalPerimeter;outlineConnect=0;targetShapes=umlLifeline;portConstraint=eastwest;newEdgeStyle={&quot;curved&quot;:0,&quot;rounded&quot;:0};" parent="I1N8RfDE5ydrOPN3Wb88-3" vertex="1">
          <mxGeometry x="50" y="110" width="10" height="40" as="geometry" />
        </mxCell>
        <mxCell id="I1N8RfDE5ydrOPN3Wb88-4" value="Tenant_Complaint_Scr" style="shape=umlLifeline;perimeter=lifelinePerimeter;whiteSpace=wrap;html=1;container=1;dropTarget=0;collapsible=0;recursiveResize=0;outlineConnect=0;portConstraint=eastwest;newEdgeStyle={&quot;curved&quot;:0,&quot;rounded&quot;:0};" parent="1" vertex="1">
          <mxGeometry x="-440" y="20" width="130" height="1060" as="geometry" />
        </mxCell>
        <mxCell id="I1N8RfDE5ydrOPN3Wb88-12" value="" style="html=1;points=[[0,0,0,0,5],[0,1,0,0,-5],[1,0,0,0,5],[1,1,0,0,-5]];perimeter=orthogonalPerimeter;outlineConnect=0;targetShapes=umlLifeline;portConstraint=eastwest;newEdgeStyle={&quot;curved&quot;:0,&quot;rounded&quot;:0};" parent="I1N8RfDE5ydrOPN3Wb88-4" vertex="1">
          <mxGeometry x="60" y="138" width="10" height="202" as="geometry" />
        </mxCell>
        <mxCell id="beBHupvPiLS2tXFk6txE-3" value="" style="html=1;points=[[0,0,0,0,5],[0,1,0,0,-5],[1,0,0,0,5],[1,1,0,0,-5]];perimeter=orthogonalPerimeter;outlineConnect=0;targetShapes=umlLifeline;portConstraint=eastwest;newEdgeStyle={&quot;curved&quot;:0,&quot;rounded&quot;:0};" parent="I1N8RfDE5ydrOPN3Wb88-4" vertex="1">
          <mxGeometry x="60" y="390" width="10" height="30" as="geometry" />
        </mxCell>
        <mxCell id="I1N8RfDE5ydrOPN3Wb88-6" value="" style="endArrow=none;dashed=1;html=1;rounded=0;" parent="1" edge="1">
          <mxGeometry width="50" height="50" relative="1" as="geometry">
            <mxPoint x="-695" y="120" as="sourcePoint" />
            <mxPoint x="-695" y="1080" as="targetPoint" />
          </mxGeometry>
        </mxCell>
        <mxCell id="I1N8RfDE5ydrOPN3Wb88-7" value="" style="endArrow=classic;html=1;rounded=0;" parent="1" edge="1">
          <mxGeometry width="50" height="50" relative="1" as="geometry">
            <mxPoint x="-690" y="130" as="sourcePoint" />
            <mxPoint x="-520" y="130" as="targetPoint" />
          </mxGeometry>
        </mxCell>
        <mxCell id="I1N8RfDE5ydrOPN3Wb88-8" value="ComplaintButton()" style="text;html=1;align=center;verticalAlign=middle;resizable=0;points=[];autosize=1;strokeColor=none;fillColor=none;" parent="1" vertex="1">
          <mxGeometry x="-675" y="105" width="120" height="30" as="geometry" />
        </mxCell>
        <mxCell id="I1N8RfDE5ydrOPN3Wb88-10" value="" style="endArrow=classic;html=1;rounded=0;" parent="1" target="I1N8RfDE5ydrOPN3Wb88-12" edge="1">
          <mxGeometry width="50" height="50" relative="1" as="geometry">
            <mxPoint x="-690" y="180" as="sourcePoint" />
            <mxPoint x="-400" y="180" as="targetPoint" />
          </mxGeometry>
        </mxCell>
        <mxCell id="I1N8RfDE5ydrOPN3Wb88-11" value="FillForm()" style="text;html=1;align=center;verticalAlign=middle;resizable=0;points=[];autosize=1;strokeColor=none;fillColor=none;" parent="1" vertex="1">
          <mxGeometry x="-650" y="155" width="70" height="30" as="geometry" />
        </mxCell>
        <mxCell id="I1N8RfDE5ydrOPN3Wb88-13" value=":Complaint" style="shape=umlLifeline;perimeter=lifelinePerimeter;whiteSpace=wrap;html=1;container=1;dropTarget=0;collapsible=0;recursiveResize=0;outlineConnect=0;portConstraint=eastwest;newEdgeStyle={&quot;curved&quot;:0,&quot;rounded&quot;:0};" parent="1" vertex="1">
          <mxGeometry x="-175" y="20" width="100" height="1060" as="geometry" />
        </mxCell>
        <mxCell id="r11Lg8bWBY_7eOTgcRl3-1" value="" style="html=1;points=[[0,0,0,0,5],[0,1,0,0,-5],[1,0,0,0,5],[1,1,0,0,-5]];perimeter=orthogonalPerimeter;outlineConnect=0;targetShapes=umlLifeline;portConstraint=eastwest;newEdgeStyle={&quot;curved&quot;:0,&quot;rounded&quot;:0};" parent="I1N8RfDE5ydrOPN3Wb88-13" vertex="1">
          <mxGeometry x="45" y="260" width="10" height="80" as="geometry" />
        </mxCell>
        <mxCell id="r11Lg8bWBY_7eOTgcRl3-18" value="" style="html=1;points=[[0,0,0,0,5],[0,1,0,0,-5],[1,0,0,0,5],[1,1,0,0,-5]];perimeter=orthogonalPerimeter;outlineConnect=0;targetShapes=umlLifeline;portConstraint=eastwest;newEdgeStyle={&quot;curved&quot;:0,&quot;rounded&quot;:0};" parent="I1N8RfDE5ydrOPN3Wb88-13" vertex="1">
          <mxGeometry x="45" y="550" width="10" height="170" as="geometry" />
        </mxCell>
        <mxCell id="I1N8RfDE5ydrOPN3Wb88-15" value="alt" style="shape=umlFrame;whiteSpace=wrap;html=1;pointerEvents=0;" parent="1" vertex="1">
          <mxGeometry x="-560" y="240" width="1040" height="200" as="geometry" />
        </mxCell>
        <mxCell id="I1N8RfDE5ydrOPN3Wb88-17" value="CheckData()" style="text;html=1;align=center;verticalAlign=middle;resizable=0;points=[];autosize=1;strokeColor=none;fillColor=none;" parent="1" vertex="1">
          <mxGeometry x="-280" y="190" width="90" height="30" as="geometry" />
        </mxCell>
        <mxCell id="I1N8RfDE5ydrOPN3Wb88-23" value="" style="endArrow=block;html=1;rounded=0;endFill=1;" parent="1" target="beBHupvPiLS2tXFk6txE-9" edge="1">
          <mxGeometry width="50" height="50" relative="1" as="geometry">
            <mxPoint x="-370" y="274.58" as="sourcePoint" />
            <mxPoint x="-130" y="274.5799999999999" as="targetPoint" />
          </mxGeometry>
        </mxCell>
        <mxCell id="I1N8RfDE5ydrOPN3Wb88-26" value="AddComplaint()" style="text;html=1;align=center;verticalAlign=middle;resizable=0;points=[];autosize=1;strokeColor=none;fillColor=none;" parent="1" vertex="1">
          <mxGeometry x="-350" y="250" width="110" height="30" as="geometry" />
        </mxCell>
        <mxCell id="I1N8RfDE5ydrOPN3Wb88-34" value=":Notification&amp;nbsp;" style="shape=umlLifeline;perimeter=lifelinePerimeter;whiteSpace=wrap;html=1;container=1;dropTarget=0;collapsible=0;recursiveResize=0;outlineConnect=0;portConstraint=eastwest;newEdgeStyle={&quot;curved&quot;:0,&quot;rounded&quot;:0};" parent="1" vertex="1">
          <mxGeometry x="80" y="260" width="100" height="820" as="geometry" />
        </mxCell>
        <mxCell id="r11Lg8bWBY_7eOTgcRl3-7" value="" style="html=1;points=[[0,0,0,0,-1],[0,0.98,0,0,0],[1,0,0,0,-1],[1,0.98,0,0,0]];perimeter=orthogonalPerimeter;outlineConnect=0;targetShapes=umlLifeline;portConstraint=eastwest;newEdgeStyle={&quot;curved&quot;:0,&quot;rounded&quot;:0};" parent="I1N8RfDE5ydrOPN3Wb88-34" vertex="1">
          <mxGeometry x="45" y="110" width="10" height="30" as="geometry" />
        </mxCell>
        <mxCell id="mxLJZWhY32rRbJcoQnrD-2" value="AddtoList()" style="html=1;verticalAlign=bottom;endArrow=block;curved=0;rounded=0;exitX=1;exitY=0;exitDx=0;exitDy=5;exitPerimeter=0;" parent="I1N8RfDE5ydrOPN3Wb88-34" edge="1">
          <mxGeometry x="0.0687" y="30" width="80" relative="1" as="geometry">
            <mxPoint x="55" y="120" as="sourcePoint" />
            <mxPoint x="55" y="131" as="targetPoint" />
            <Array as="points">
              <mxPoint x="115" y="120" />
              <mxPoint x="115" y="131" />
            </Array>
            <mxPoint as="offset" />
          </mxGeometry>
        </mxCell>
        <mxCell id="mxLJZWhY32rRbJcoQnrD-21" value="" style="html=1;points=[[0,0,0,0,-1],[0,0.98,0,0,0],[1,0,0,0,-1],[1,0.98,0,0,0]];perimeter=orthogonalPerimeter;outlineConnect=0;targetShapes=umlLifeline;portConstraint=eastwest;newEdgeStyle={&quot;curved&quot;:0,&quot;rounded&quot;:0};" parent="I1N8RfDE5ydrOPN3Wb88-34" vertex="1">
          <mxGeometry x="45" y="550" width="10" height="40" as="geometry" />
        </mxCell>
        <mxCell id="mxLJZWhY32rRbJcoQnrD-24" value="AddtoList()" style="html=1;verticalAlign=bottom;endArrow=block;curved=0;rounded=0;" parent="I1N8RfDE5ydrOPN3Wb88-34" source="mxLJZWhY32rRbJcoQnrD-21" target="mxLJZWhY32rRbJcoQnrD-21" edge="1">
          <mxGeometry x="0.0687" y="30" width="80" relative="1" as="geometry">
            <mxPoint x="60" y="555" as="sourcePoint" />
            <mxPoint x="60" y="566" as="targetPoint" />
            <Array as="points">
              <mxPoint x="120" y="555" />
              <mxPoint x="120" y="566" />
            </Array>
            <mxPoint as="offset" />
          </mxGeometry>
        </mxCell>
        <mxCell id="I1N8RfDE5ydrOPN3Wb88-37" value="Manager" style="shape=umlActor;verticalLabelPosition=bottom;verticalAlign=top;html=1;outlineConnect=0;" parent="1" vertex="1">
          <mxGeometry x="-800" y="30" width="30" height="60" as="geometry" />
        </mxCell>
        <mxCell id="I1N8RfDE5ydrOPN3Wb88-38" value="Mng_Home_Scr" style="shape=umlLifeline;perimeter=lifelinePerimeter;whiteSpace=wrap;html=1;container=1;dropTarget=0;collapsible=0;recursiveResize=0;outlineConnect=0;portConstraint=eastwest;newEdgeStyle={&quot;curved&quot;:0,&quot;rounded&quot;:0};" parent="1" vertex="1">
          <mxGeometry x="230" y="20" width="100" height="1060" as="geometry" />
        </mxCell>
        <mxCell id="beBHupvPiLS2tXFk6txE-4" value="" style="html=1;points=[[0,0,0,0,5],[0,1,0,0,-5],[1,0,0,0,5],[1,1,0,0,-5]];perimeter=orthogonalPerimeter;outlineConnect=0;targetShapes=umlLifeline;portConstraint=eastwest;newEdgeStyle={&quot;curved&quot;:0,&quot;rounded&quot;:0};" parent="I1N8RfDE5ydrOPN3Wb88-38" vertex="1">
          <mxGeometry x="45" y="440" width="10" height="30" as="geometry" />
        </mxCell>
        <mxCell id="I1N8RfDE5ydrOPN3Wb88-39" value="Mng_Notif_Scr" style="shape=umlLifeline;perimeter=lifelinePerimeter;whiteSpace=wrap;html=1;container=1;dropTarget=0;collapsible=0;recursiveResize=0;outlineConnect=0;portConstraint=eastwest;newEdgeStyle={&quot;curved&quot;:0,&quot;rounded&quot;:0};" parent="1" vertex="1">
          <mxGeometry x="370" y="320" width="100" height="760" as="geometry" />
        </mxCell>
        <mxCell id="r11Lg8bWBY_7eOTgcRl3-13" value="" style="html=1;points=[[0,0,0,0,5],[0,1,0,0,-5],[1,0,0,0,5],[1,1,0,0,-5]];perimeter=orthogonalPerimeter;outlineConnect=0;targetShapes=umlLifeline;portConstraint=eastwest;newEdgeStyle={&quot;curved&quot;:0,&quot;rounded&quot;:0};" parent="I1N8RfDE5ydrOPN3Wb88-39" vertex="1">
          <mxGeometry x="45" y="110" width="10" height="490" as="geometry" />
        </mxCell>
        <mxCell id="I1N8RfDE5ydrOPN3Wb88-41" value="" style="endArrow=none;dashed=1;html=1;rounded=0;" parent="1" edge="1">
          <mxGeometry width="50" height="50" relative="1" as="geometry">
            <mxPoint x="-785.5" y="120" as="sourcePoint" />
            <mxPoint x="-785" y="1080" as="targetPoint" />
          </mxGeometry>
        </mxCell>
        <mxCell id="I1N8RfDE5ydrOPN3Wb88-42" value="" style="endArrow=block;html=1;rounded=0;exitX=-0.015;exitY=1.058;exitDx=0;exitDy=0;exitPerimeter=0;endFill=1;" parent="1" source="I1N8RfDE5ydrOPN3Wb88-43" target="beBHupvPiLS2tXFk6txE-4" edge="1">
          <mxGeometry width="50" height="50" relative="1" as="geometry">
            <mxPoint x="-790" y="460" as="sourcePoint" />
            <mxPoint x="270" y="460" as="targetPoint" />
            <Array as="points">
              <mxPoint x="-330" y="460" />
            </Array>
          </mxGeometry>
        </mxCell>
        <mxCell id="I1N8RfDE5ydrOPN3Wb88-43" value="NotificationButton()" style="text;html=1;align=center;verticalAlign=middle;resizable=0;points=[];autosize=1;strokeColor=none;fillColor=none;" parent="1" vertex="1">
          <mxGeometry x="-780" y="430" width="130" height="30" as="geometry" />
        </mxCell>
        <mxCell id="I1N8RfDE5ydrOPN3Wb88-44" value="" style="endArrow=block;html=1;rounded=0;endFill=1;" parent="1" target="r11Lg8bWBY_7eOTgcRl3-13" edge="1">
          <mxGeometry width="50" height="50" relative="1" as="geometry">
            <mxPoint x="-784.75" y="509.99999999999994" as="sourcePoint" />
            <mxPoint x="410" y="510" as="targetPoint" />
          </mxGeometry>
        </mxCell>
        <mxCell id="I1N8RfDE5ydrOPN3Wb88-45" value="ComplaintsButton()" style="text;html=1;align=center;verticalAlign=middle;resizable=0;points=[];autosize=1;strokeColor=none;fillColor=none;" parent="1" vertex="1">
          <mxGeometry x="-780" y="480" width="130" height="30" as="geometry" />
        </mxCell>
        <mxCell id="I1N8RfDE5ydrOPN3Wb88-47" value="" style="endArrow=block;html=1;rounded=0;entryX=1;entryY=0;entryDx=0;entryDy=-1;entryPerimeter=0;endFill=1;" parent="1" source="r11Lg8bWBY_7eOTgcRl3-13" target="beBHupvPiLS2tXFk6txE-10" edge="1">
          <mxGeometry width="50" height="50" relative="1" as="geometry">
            <mxPoint x="410" y="550" as="sourcePoint" />
            <mxPoint x="30" y="550" as="targetPoint" />
            <Array as="points" />
          </mxGeometry>
        </mxCell>
        <mxCell id="I1N8RfDE5ydrOPN3Wb88-48" value="StartSearch()" style="text;html=1;align=center;verticalAlign=middle;resizable=0;points=[];autosize=1;strokeColor=none;fillColor=none;" parent="1" vertex="1">
          <mxGeometry x="300" y="520" width="90" height="30" as="geometry" />
        </mxCell>
        <mxCell id="I1N8RfDE5ydrOPN3Wb88-54" value="SearchComplaints()" style="text;html=1;align=center;verticalAlign=middle;resizable=0;points=[];autosize=1;strokeColor=none;fillColor=none;" parent="1" vertex="1">
          <mxGeometry x="-125" y="570" width="130" height="30" as="geometry" />
        </mxCell>
        <mxCell id="I1N8RfDE5ydrOPN3Wb88-61" value="" style="endArrow=block;html=1;rounded=0;endFill=1;" parent="1" target="r11Lg8bWBY_7eOTgcRl3-13" edge="1">
          <mxGeometry width="50" height="50" relative="1" as="geometry">
            <mxPoint x="-780" y="679.9999999999999" as="sourcePoint" />
            <mxPoint x="410" y="680" as="targetPoint" />
          </mxGeometry>
        </mxCell>
        <mxCell id="I1N8RfDE5ydrOPN3Wb88-62" value="&lt;span style=&quot;white-space: pre;&quot;&gt;&#x9;&lt;/span&gt;ChooseComplaint()" style="text;html=1;align=center;verticalAlign=middle;resizable=0;points=[];autosize=1;strokeColor=none;fillColor=none;" parent="1" vertex="1">
          <mxGeometry x="-810" y="650" width="150" height="30" as="geometry" />
        </mxCell>
        <mxCell id="I1N8RfDE5ydrOPN3Wb88-75" value="" style="endArrow=block;html=1;rounded=0;endFill=1;" parent="1" edge="1">
          <mxGeometry width="50" height="50" relative="1" as="geometry">
            <mxPoint x="-780" y="874.5" as="sourcePoint" />
            <mxPoint x="415" y="874.5" as="targetPoint" />
          </mxGeometry>
        </mxCell>
        <mxCell id="I1N8RfDE5ydrOPN3Wb88-76" value="AnswerButton()" style="text;html=1;align=center;verticalAlign=middle;resizable=0;points=[];autosize=1;strokeColor=none;fillColor=none;" parent="1" vertex="1">
          <mxGeometry x="-780" y="840" width="110" height="30" as="geometry" />
        </mxCell>
        <mxCell id="I1N8RfDE5ydrOPN3Wb88-82" value="DisplayAnswerForm()" style="text;html=1;align=center;verticalAlign=middle;resizable=0;points=[];autosize=1;strokeColor=none;fillColor=none;" parent="1" vertex="1">
          <mxGeometry x="230" y="880" width="140" height="30" as="geometry" />
        </mxCell>
        <mxCell id="zKUNeTODBy4k3tI_uZ0O-1" value="" style="endArrow=classic;html=1;rounded=0;dashed=1;" parent="1" edge="1">
          <mxGeometry width="50" height="50" relative="1" as="geometry">
            <mxPoint x="-270" y="210" as="sourcePoint" />
            <mxPoint x="-270" y="210" as="targetPoint" />
          </mxGeometry>
        </mxCell>
        <mxCell id="zKUNeTODBy4k3tI_uZ0O-2" value="" style="endArrow=none;html=1;rounded=0;endFill=1;startFill=0;" parent="1" source="I1N8RfDE5ydrOPN3Wb88-12" edge="1">
          <mxGeometry width="50" height="50" relative="1" as="geometry">
            <mxPoint x="-190" y="300" as="sourcePoint" />
            <mxPoint x="-280" y="190" as="targetPoint" />
            <Array as="points">
              <mxPoint x="-280" y="190" />
            </Array>
          </mxGeometry>
        </mxCell>
        <mxCell id="zKUNeTODBy4k3tI_uZ0O-3" value="" style="endArrow=none;html=1;rounded=0;" parent="1" edge="1">
          <mxGeometry width="50" height="50" relative="1" as="geometry">
            <mxPoint x="-280" y="220" as="sourcePoint" />
            <mxPoint x="-280" y="190" as="targetPoint" />
          </mxGeometry>
        </mxCell>
        <mxCell id="zKUNeTODBy4k3tI_uZ0O-4" value="" style="endArrow=block;html=1;rounded=0;endFill=1;" parent="1" target="I1N8RfDE5ydrOPN3Wb88-12" edge="1">
          <mxGeometry width="50" height="50" relative="1" as="geometry">
            <mxPoint x="-280" y="220" as="sourcePoint" />
            <mxPoint x="-390" y="220" as="targetPoint" />
          </mxGeometry>
        </mxCell>
        <mxCell id="zKUNeTODBy4k3tI_uZ0O-5" value="" style="endArrow=none;html=1;rounded=0;" parent="1" edge="1">
          <mxGeometry width="50" height="50" relative="1" as="geometry">
            <mxPoint x="-370" y="410" as="sourcePoint" />
            <mxPoint x="-280" y="410" as="targetPoint" />
            <Array as="points" />
          </mxGeometry>
        </mxCell>
        <mxCell id="zKUNeTODBy4k3tI_uZ0O-7" value="" style="endArrow=block;html=1;rounded=0;endFill=1;" parent="1" edge="1">
          <mxGeometry width="50" height="50" relative="1" as="geometry">
            <mxPoint x="-280" y="430" as="sourcePoint" />
            <mxPoint x="-370" y="429.9999999999999" as="targetPoint" />
            <Array as="points">
              <mxPoint x="-290" y="430" />
            </Array>
          </mxGeometry>
        </mxCell>
        <mxCell id="zKUNeTODBy4k3tI_uZ0O-11" value="Error_Message()" style="text;html=1;align=center;verticalAlign=middle;resizable=0;points=[];autosize=1;strokeColor=none;fillColor=none;" parent="1" vertex="1">
          <mxGeometry x="-285" y="400" width="110" height="30" as="geometry" />
        </mxCell>
        <mxCell id="r11Lg8bWBY_7eOTgcRl3-4" value="" style="endArrow=block;html=1;rounded=0;endFill=1;" parent="1" source="beBHupvPiLS2tXFk6txE-10" target="r11Lg8bWBY_7eOTgcRl3-13" edge="1">
          <mxGeometry width="50" height="50" relative="1" as="geometry">
            <mxPoint x="-125" y="640" as="sourcePoint" />
            <mxPoint x="410.5" y="640" as="targetPoint" />
            <Array as="points">
              <mxPoint x="30.5" y="640" />
            </Array>
          </mxGeometry>
        </mxCell>
        <mxCell id="r11Lg8bWBY_7eOTgcRl3-6" value="ShowResults()" style="text;html=1;align=center;verticalAlign=middle;resizable=0;points=[];autosize=1;strokeColor=none;fillColor=none;" parent="1" vertex="1">
          <mxGeometry x="10" y="620" width="100" height="30" as="geometry" />
        </mxCell>
        <mxCell id="r11Lg8bWBY_7eOTgcRl3-19" value="" style="endArrow=open;html=1;rounded=0;dashed=1;endFill=0;" parent="1" target="beBHupvPiLS2tXFk6txE-10" edge="1">
          <mxGeometry width="50" height="50" relative="1" as="geometry">
            <mxPoint x="415.5" y="700" as="sourcePoint" />
            <mxPoint x="-120" y="700" as="targetPoint" />
            <Array as="points">
              <mxPoint x="35.5" y="700" />
              <mxPoint x="30" y="700" />
            </Array>
          </mxGeometry>
        </mxCell>
        <mxCell id="r11Lg8bWBY_7eOTgcRl3-20" value="Return Selection" style="text;html=1;align=center;verticalAlign=middle;resizable=0;points=[];autosize=1;strokeColor=none;fillColor=none;" parent="1" vertex="1">
          <mxGeometry x="10" y="698" width="110" height="30" as="geometry" />
        </mxCell>
        <mxCell id="r11Lg8bWBY_7eOTgcRl3-21" value="" style="endArrow=block;html=1;rounded=0;endFill=1;" parent="1" source="beBHupvPiLS2tXFk6txE-10" edge="1">
          <mxGeometry width="50" height="50" relative="1" as="geometry">
            <mxPoint x="20" y="740" as="sourcePoint" />
            <mxPoint x="415.5" y="740" as="targetPoint" />
            <Array as="points">
              <mxPoint x="35.5" y="740" />
            </Array>
          </mxGeometry>
        </mxCell>
        <mxCell id="r11Lg8bWBY_7eOTgcRl3-22" value="ShowResults()" style="text;html=1;align=center;verticalAlign=middle;resizable=0;points=[];autosize=1;strokeColor=none;fillColor=none;" parent="1" vertex="1">
          <mxGeometry x="5" y="740" width="100" height="30" as="geometry" />
        </mxCell>
        <mxCell id="r11Lg8bWBY_7eOTgcRl3-23" value="" style="endArrow=classic;html=1;rounded=0;exitX=1;exitY=0;exitDx=0;exitDy=5;exitPerimeter=0;endFill=1;" parent="1" target="r11Lg8bWBY_7eOTgcRl3-25" edge="1">
          <mxGeometry width="50" height="50" relative="1" as="geometry">
            <mxPoint x="412.5" y="790" as="sourcePoint" />
            <mxPoint x="200" y="790" as="targetPoint" />
          </mxGeometry>
        </mxCell>
        <mxCell id="r11Lg8bWBY_7eOTgcRl3-27" value="" style="endArrow=none;html=1;rounded=0;" parent="1" edge="1">
          <mxGeometry width="50" height="50" relative="1" as="geometry">
            <mxPoint x="360" y="889.43" as="sourcePoint" />
            <mxPoint x="415" y="889.43" as="targetPoint" />
            <Array as="points">
              <mxPoint x="400" y="889.43" />
            </Array>
          </mxGeometry>
        </mxCell>
        <mxCell id="r11Lg8bWBY_7eOTgcRl3-28" value="" style="endArrow=none;html=1;rounded=0;" parent="1" edge="1">
          <mxGeometry width="50" height="50" relative="1" as="geometry">
            <mxPoint x="360" y="890" as="sourcePoint" />
            <mxPoint x="360" y="910" as="targetPoint" />
          </mxGeometry>
        </mxCell>
        <mxCell id="r11Lg8bWBY_7eOTgcRl3-29" value="" style="endArrow=block;html=1;rounded=0;endFill=1;" parent="1" edge="1">
          <mxGeometry width="50" height="50" relative="1" as="geometry">
            <mxPoint x="360" y="910" as="sourcePoint" />
            <mxPoint x="415" y="910" as="targetPoint" />
          </mxGeometry>
        </mxCell>
        <mxCell id="beBHupvPiLS2tXFk6txE-2" value="" style="endArrow=none;dashed=1;html=1;rounded=0;exitX=-0.001;exitY=0.771;exitDx=0;exitDy=0;exitPerimeter=0;" parent="1" edge="1">
          <mxGeometry width="50" height="50" relative="1" as="geometry">
            <mxPoint x="-560" y="406.1799999999999" as="sourcePoint" />
            <mxPoint x="480" y="403.82" as="targetPoint" />
            <Array as="points">
              <mxPoint x="-370" y="404.82" />
            </Array>
          </mxGeometry>
        </mxCell>
        <mxCell id="beBHupvPiLS2tXFk6txE-6" value="[data correct]" style="text;html=1;align=center;verticalAlign=middle;resizable=0;points=[];autosize=1;strokeColor=none;fillColor=none;" parent="1" vertex="1">
          <mxGeometry x="-85" y="238" width="90" height="30" as="geometry" />
        </mxCell>
        <mxCell id="beBHupvPiLS2tXFk6txE-7" value="[data incorrect]" style="text;html=1;align=center;verticalAlign=middle;resizable=0;points=[];autosize=1;strokeColor=none;fillColor=none;" parent="1" vertex="1">
          <mxGeometry x="-115" y="398" width="100" height="30" as="geometry" />
        </mxCell>
        <mxCell id="beBHupvPiLS2tXFk6txE-8" value="Manage_&lt;div&gt;Compl_Class&lt;/div&gt;" style="shape=umlLifeline;perimeter=lifelinePerimeter;whiteSpace=wrap;html=1;container=1;dropTarget=0;collapsible=0;recursiveResize=0;outlineConnect=0;portConstraint=eastwest;newEdgeStyle={&quot;curved&quot;:0,&quot;rounded&quot;:0};" parent="1" vertex="1">
          <mxGeometry x="-40" y="20" width="100" height="1060" as="geometry" />
        </mxCell>
        <mxCell id="beBHupvPiLS2tXFk6txE-9" value="" style="html=1;points=[[0,0,0,0,5],[0,1,0,0,-5],[1,0,0,0,5],[1,1,0,0,-5]];perimeter=orthogonalPerimeter;outlineConnect=0;targetShapes=umlLifeline;portConstraint=eastwest;newEdgeStyle={&quot;curved&quot;:0,&quot;rounded&quot;:0};" parent="beBHupvPiLS2tXFk6txE-8" vertex="1">
          <mxGeometry x="45" y="230" width="10" height="150" as="geometry" />
        </mxCell>
        <mxCell id="beBHupvPiLS2tXFk6txE-10" value="" style="html=1;points=[[0,0,0,0,-1],[0,1,0,0,-5],[1,0,0,0,-1],[1,1,0,0,-5]];perimeter=orthogonalPerimeter;outlineConnect=0;targetShapes=umlLifeline;portConstraint=eastwest;newEdgeStyle={&quot;curved&quot;:0,&quot;rounded&quot;:0};" parent="beBHupvPiLS2tXFk6txE-8" vertex="1">
          <mxGeometry x="45" y="530" width="10" height="190" as="geometry" />
        </mxCell>
        <mxCell id="r11Lg8bWBY_7eOTgcRl3-25" value="" style="html=1;points=[[0,0,0,0,5],[0,1,0,0,-5],[1,0,0,0,5],[1,1,0,0,-5]];perimeter=orthogonalPerimeter;outlineConnect=0;targetShapes=umlLifeline;portConstraint=eastwest;newEdgeStyle={&quot;curved&quot;:0,&quot;rounded&quot;:0};" parent="beBHupvPiLS2tXFk6txE-8" vertex="1">
          <mxGeometry x="45" y="770" width="10" height="60" as="geometry" />
        </mxCell>
        <mxCell id="beBHupvPiLS2tXFk6txE-11" value="" style="endArrow=block;html=1;rounded=0;endFill=1;" parent="1" edge="1">
          <mxGeometry width="50" height="50" relative="1" as="geometry">
            <mxPoint x="5" y="290" as="sourcePoint" />
            <mxPoint x="-120" y="290" as="targetPoint" />
          </mxGeometry>
        </mxCell>
        <mxCell id="beBHupvPiLS2tXFk6txE-12" value="UpdateData()" style="text;html=1;align=center;verticalAlign=middle;resizable=0;points=[];autosize=1;strokeColor=none;fillColor=none;" parent="1" vertex="1">
          <mxGeometry x="-115" y="270" width="100" height="30" as="geometry" />
        </mxCell>
        <mxCell id="beBHupvPiLS2tXFk6txE-13" value="" style="endArrow=open;html=1;rounded=0;dashed=1;endFill=0;" parent="1" target="beBHupvPiLS2tXFk6txE-10" edge="1">
          <mxGeometry width="50" height="50" relative="1" as="geometry">
            <mxPoint x="-120" y="600" as="sourcePoint" />
            <mxPoint y="600" as="targetPoint" />
            <Array as="points">
              <mxPoint x="-89.5" y="600" />
            </Array>
          </mxGeometry>
        </mxCell>
        <mxCell id="beBHupvPiLS2tXFk6txE-14" value="return data" style="text;html=1;align=center;verticalAlign=middle;resizable=0;points=[];autosize=1;strokeColor=none;fillColor=none;" parent="1" vertex="1">
          <mxGeometry x="-125" y="600" width="80" height="30" as="geometry" />
        </mxCell>
        <mxCell id="beBHupvPiLS2tXFk6txE-16" value="" style="endArrow=open;html=1;rounded=0;dashed=1;endFill=0;" parent="1" edge="1">
          <mxGeometry width="50" height="50" relative="1" as="geometry">
            <mxPoint x="-120" y="728" as="sourcePoint" />
            <mxPoint x="5" y="728" as="targetPoint" />
            <Array as="points">
              <mxPoint x="-89.5" y="728" />
            </Array>
          </mxGeometry>
        </mxCell>
        <mxCell id="beBHupvPiLS2tXFk6txE-17" value="SearchDetails()" style="text;html=1;align=center;verticalAlign=middle;resizable=0;points=[];autosize=1;strokeColor=none;fillColor=none;" parent="1" vertex="1">
          <mxGeometry x="-125" y="690" width="110" height="30" as="geometry" />
        </mxCell>
        <mxCell id="beBHupvPiLS2tXFk6txE-18" value="return data" style="text;html=1;align=center;verticalAlign=middle;resizable=0;points=[];autosize=1;strokeColor=none;fillColor=none;" parent="1" vertex="1">
          <mxGeometry x="-110" y="720" width="80" height="30" as="geometry" />
        </mxCell>
        <mxCell id="beBHupvPiLS2tXFk6txE-20" value="" style="endArrow=classic;html=1;rounded=0;" parent="1" edge="1">
          <mxGeometry width="50" height="50" relative="1" as="geometry">
            <mxPoint x="5" y="570" as="sourcePoint" />
            <mxPoint x="-120" y="570" as="targetPoint" />
          </mxGeometry>
        </mxCell>
        <mxCell id="beBHupvPiLS2tXFk6txE-21" value="" style="endArrow=classic;html=1;rounded=0;" parent="1" edge="1">
          <mxGeometry width="50" height="50" relative="1" as="geometry">
            <mxPoint x="5" y="712.66" as="sourcePoint" />
            <mxPoint x="-120" y="713" as="targetPoint" />
          </mxGeometry>
        </mxCell>
        <mxCell id="mxLJZWhY32rRbJcoQnrD-5" value="" style="endArrow=block;html=1;rounded=0;entryX=0;entryY=0;entryDx=0;entryDy=-1;entryPerimeter=0;endFill=1;" parent="1" source="beBHupvPiLS2tXFk6txE-9" edge="1">
          <mxGeometry width="50" height="50" relative="1" as="geometry">
            <mxPoint x="19.999999999999545" y="369.65999999999985" as="sourcePoint" />
            <mxPoint x="129.99999999999955" y="369.65999999999985" as="targetPoint" />
          </mxGeometry>
        </mxCell>
        <mxCell id="mxLJZWhY32rRbJcoQnrD-6" value="&lt;span style=&quot;font-size: 11px; background-color: rgb(255, 255, 255);&quot;&gt;NotifCreate()&lt;/span&gt;" style="text;html=1;align=center;verticalAlign=middle;resizable=0;points=[];autosize=1;strokeColor=none;fillColor=none;" parent="1" vertex="1">
          <mxGeometry x="10" y="340" width="90" height="30" as="geometry" />
        </mxCell>
        <mxCell id="mxLJZWhY32rRbJcoQnrD-7" value="" style="endArrow=open;html=1;rounded=0;dashed=1;exitX=0;exitY=0.98;exitDx=0;exitDy=0;exitPerimeter=0;endFill=0;" parent="1" source="r11Lg8bWBY_7eOTgcRl3-7" target="beBHupvPiLS2tXFk6txE-9" edge="1">
          <mxGeometry width="50" height="50" relative="1" as="geometry">
            <mxPoint x="120" y="380" as="sourcePoint" />
            <mxPoint x="20" y="374.65999999999997" as="targetPoint" />
          </mxGeometry>
        </mxCell>
        <mxCell id="mxLJZWhY32rRbJcoQnrD-8" value="return" style="text;html=1;align=center;verticalAlign=middle;resizable=0;points=[];autosize=1;strokeColor=none;fillColor=none;" parent="1" vertex="1">
          <mxGeometry x="20" y="375" width="50" height="30" as="geometry" />
        </mxCell>
        <mxCell id="mxLJZWhY32rRbJcoQnrD-9" value="" style="endArrow=block;html=1;rounded=0;endFill=1;" parent="1" source="beBHupvPiLS2tXFk6txE-4" target="r11Lg8bWBY_7eOTgcRl3-13" edge="1">
          <mxGeometry width="50" height="50" relative="1" as="geometry">
            <mxPoint x="290" y="490" as="sourcePoint" />
            <mxPoint x="410" y="490" as="targetPoint" />
          </mxGeometry>
        </mxCell>
        <mxCell id="mxLJZWhY32rRbJcoQnrD-10" value="Display()" style="text;html=1;align=center;verticalAlign=middle;resizable=0;points=[];autosize=1;strokeColor=none;fillColor=none;" parent="1" vertex="1">
          <mxGeometry x="290" y="450" width="70" height="30" as="geometry" />
        </mxCell>
        <mxCell id="mxLJZWhY32rRbJcoQnrD-13" value="AddComptoList()" style="html=1;verticalAlign=bottom;endArrow=block;curved=0;rounded=0;exitX=1;exitY=0;exitDx=0;exitDy=5;exitPerimeter=0;endFill=1;" parent="1" edge="1">
          <mxGeometry x="0.1391" y="10" width="80" relative="1" as="geometry">
            <mxPoint x="-120" y="304" as="sourcePoint" />
            <mxPoint x="-120" y="335" as="targetPoint" />
            <Array as="points">
              <mxPoint x="-60" y="304" />
              <mxPoint x="-60" y="335" />
            </Array>
            <mxPoint as="offset" />
          </mxGeometry>
        </mxCell>
        <mxCell id="mxLJZWhY32rRbJcoQnrD-17" value="" style="endArrow=classic;html=1;rounded=0;dashed=1;exitX=0;exitY=0.98;exitDx=0;exitDy=0;exitPerimeter=0;" parent="1" edge="1">
          <mxGeometry width="50" height="50" relative="1" as="geometry">
            <mxPoint x="-120" y="360" as="sourcePoint" />
            <mxPoint x="5" y="360" as="targetPoint" />
          </mxGeometry>
        </mxCell>
        <mxCell id="mxLJZWhY32rRbJcoQnrD-18" value="return" style="text;html=1;align=center;verticalAlign=middle;resizable=0;points=[];autosize=1;strokeColor=none;fillColor=none;" parent="1" vertex="1">
          <mxGeometry x="-110" y="350" width="50" height="30" as="geometry" />
        </mxCell>
        <mxCell id="mxLJZWhY32rRbJcoQnrD-20" value="" style="endArrow=none;html=1;rounded=0;" parent="1" edge="1">
          <mxGeometry width="50" height="50" relative="1" as="geometry">
            <mxPoint x="-280" y="430" as="sourcePoint" />
            <mxPoint x="-280" y="410" as="targetPoint" />
          </mxGeometry>
        </mxCell>
        <mxCell id="mxLJZWhY32rRbJcoQnrD-22" value="" style="endArrow=classic;html=1;rounded=0;entryX=0;entryY=0;entryDx=0;entryDy=-1;entryPerimeter=0;" parent="1" source="r11Lg8bWBY_7eOTgcRl3-25" target="mxLJZWhY32rRbJcoQnrD-21" edge="1">
          <mxGeometry width="50" height="50" relative="1" as="geometry">
            <mxPoint x="20" y="810" as="sourcePoint" />
            <mxPoint x="120" y="810" as="targetPoint" />
          </mxGeometry>
        </mxCell>
        <mxCell id="mxLJZWhY32rRbJcoQnrD-23" value="&lt;span style=&quot;color: rgb(0, 0, 0); font-family: Helvetica; font-size: 11px; font-style: normal; font-variant-ligatures: normal; font-variant-caps: normal; font-weight: 400; letter-spacing: normal; orphans: 2; text-align: center; text-indent: 0px; text-transform: none; widows: 2; word-spacing: 0px; -webkit-text-stroke-width: 0px; white-space: nowrap; background-color: rgb(255, 255, 255); text-decoration-thickness: initial; text-decoration-style: initial; text-decoration-color: initial; display: inline !important; float: none;&quot;&gt;NotifCreate()&lt;/span&gt;" style="text;whiteSpace=wrap;html=1;" parent="1" vertex="1">
          <mxGeometry x="30" y="810" width="100" height="40" as="geometry" />
        </mxCell>
        <mxCell id="mxLJZWhY32rRbJcoQnrD-26" value="" style="endArrow=open;html=1;rounded=0;dashed=1;endFill=0;" parent="1" target="r11Lg8bWBY_7eOTgcRl3-25" edge="1">
          <mxGeometry width="50" height="50" relative="1" as="geometry">
            <mxPoint x="130" y="850" as="sourcePoint" />
            <mxPoint x="20" y="850" as="targetPoint" />
            <Array as="points">
              <mxPoint x="35.5" y="850" />
            </Array>
          </mxGeometry>
        </mxCell>
        <mxCell id="mxLJZWhY32rRbJcoQnrD-29" value="return&lt;div&gt;&lt;br&gt;&lt;/div&gt;" style="text;html=1;align=center;verticalAlign=middle;resizable=0;points=[];autosize=1;strokeColor=none;fillColor=none;" parent="1" vertex="1">
          <mxGeometry x="20" y="850" width="50" height="40" as="geometry" />
        </mxCell>
        <mxCell id="mxLJZWhY32rRbJcoQnrD-30" value="&lt;span style=&quot;color: rgb(0, 0, 0); font-family: Helvetica; font-size: 11px; font-style: normal; font-variant-ligatures: normal; font-variant-caps: normal; font-weight: 400; letter-spacing: normal; orphans: 2; text-align: center; text-indent: 0px; text-transform: none; widows: 2; word-spacing: 0px; -webkit-text-stroke-width: 0px; white-space: nowrap; background-color: rgb(255, 255, 255); text-decoration-thickness: initial; text-decoration-style: initial; text-decoration-color: initial; display: inline !important; float: none;&quot;&gt;createNotif()&lt;/span&gt;" style="text;whiteSpace=wrap;html=1;" parent="1" vertex="1">
          <mxGeometry x="170" y="770" width="90" height="40" as="geometry" />
        </mxCell>
        <mxCell id="mxLJZWhY32rRbJcoQnrD-36" value="" style="endArrow=classic;html=1;rounded=0;" parent="1" edge="1">
          <mxGeometry width="50" height="50" relative="1" as="geometry">
            <mxPoint x="-510" y="159.76" as="sourcePoint" />
            <mxPoint x="-380" y="160" as="targetPoint" />
          </mxGeometry>
        </mxCell>
        <mxCell id="mxLJZWhY32rRbJcoQnrD-37" value="Display()" style="text;html=1;align=center;verticalAlign=middle;resizable=0;points=[];autosize=1;strokeColor=none;fillColor=none;" parent="1" vertex="1">
          <mxGeometry x="-480" y="140" width="70" height="30" as="geometry" />
        </mxCell>
      </root>
    </mxGraphModel>
  </diagram>
</mxfile>
